<svg width="341" height="248" viewBox="0 0 341 248" fill="none" xmlns="http://www.w3.org/2000/svg">
<defs>
<filter id="filter0_d" x="0" y="0" width="341" height="248" filterUnits="userSpaceOnUse" color-interpolation-filters="sRGB">
<feFlood flood-opacity="0" result="BackgroundImageFix"/>
<feColorMatrix in="SourceAlpha" type="matrix" values="0 0 0 0 0 0 0 0 0 0 0 0 0 0 0 0 0 0 127 0"/>
<feOffset dy="4"/>
<feGaussianBlur stdDeviation="2"/>
<feColorMatrix type="matrix" values="0 0 0 0 0 0 0 0 0 0 0 0 0 0 0 0 0 0 0.25 0"/>
<feBlend mode="normal" in2="BackgroundImageFix" result="effect1_dropShadow"/>
<feBlend mode="normal" in="SourceGraphic" in2="effect1_dropShadow" result="shape"/>
</filter>
<linearGradient id="paint0_linear" x1="101.403" y1="179.318" x2="115.087" y2="151.701" gradientUnits="userSpaceOnUse">
<stop stop-color="#808080" stop-opacity="0.25"/>
<stop offset="0.53514" stop-color="#808080" stop-opacity="0.12"/>
<stop offset="1" stop-color="#808080" stop-opacity="0.1"/>
</linearGradient>
</defs>
<g filter="url(#filter0_d)">
<path d="M18.4315 121.007C22.0381 113.748 24.078 107.425 22.9876 106.885C21.8973 106.345 18.0896 111.791 14.4829 119.051C10.8763 126.31 8.83639 132.632 9.92675 133.173C11.0171 133.713 14.8248 128.266 18.4315 121.007Z" fill="#E0E0E0"/>
<path d="M201.389 211.748C204.996 204.489 207.319 198.307 206.578 197.94C205.838 197.573 202.313 203.16 198.707 210.419C195.1 217.678 192.777 223.86 193.518 224.227C194.258 224.594 197.783 219.007 201.389 211.748Z" fill="#E0E0E0"/>
<path d="M103.073 175.051L96.2751 169.445L77.5649 192.074L84.3627 197.679L103.073 175.051Z" fill="#F55F44"/>
<path opacity="0.05" d="M87.4407 199.484L97.0965 201.752L103.822 173.185L94.1665 170.918L87.4407 199.484Z" fill="black"/>
<path d="M88.5149 199.737L97.0965 201.752L103.822 173.185L95.2406 171.17L88.5149 199.737Z" fill="#F55F44"/>
<path d="M23.3142 106.228L9.60022 133.83L193.206 224.806L206.92 197.204L23.3142 106.228Z" fill="url(#paint0_linear)"/>
<path d="M193.533 224.149C189.939 222.427 7.29439 131.868 9.92674 133.173C20.0641 117.721 22.9876 106.885 22.9876 106.885L206.594 197.861C206.594 197.861 200.146 209.161 193.533 224.149Z" fill="#F5F5F5"/>
<path opacity="0.05" d="M118.41 154.166L103.274 146.667L90.2133 172.954L105.349 180.454L118.41 154.166Z" fill="black"/>
<path d="M117.752 153.84L103.932 146.993L90.8714 173.28L104.691 180.128L117.752 153.84Z" fill="#F55F44"/>
<path opacity="0.05" d="M115.12 152.536L105.907 147.971L92.8456 174.259L102.059 178.824L115.12 152.536Z" fill="black"/>
<path d="M114.462 152.21L106.565 148.297L93.5037 174.585L101.401 178.498L114.462 152.21Z" fill="#F55F44"/>
<path d="M113.398 236.995C114.075 236.995 114.623 236.447 114.623 235.772C114.623 235.096 114.075 234.549 113.398 234.549C112.722 234.549 112.173 235.096 112.173 235.772C112.173 236.447 112.722 236.995 113.398 236.995Z" fill="#DBDBDB"/>
<g opacity="0.5">
<path opacity="0.5" d="M17.5622 201.52H16.3062V208.627H17.5622V201.52Z" fill="#47E6B1"/>
<path opacity="0.5" d="M20.4928 205.701V204.446H13.3756V205.701H20.4928Z" fill="#47E6B1"/>
</g>
<g opacity="0.5">
<path opacity="0.5" d="M334.069 112.885H332.813V119.992H334.069V112.885Z" fill="#47E6B1"/>
<path opacity="0.5" d="M337 117.065V115.811H329.883V117.065H337Z" fill="#47E6B1"/>
</g>
<g opacity="0.5">
<path opacity="0.5" d="M25.0981 24.6674H23.8421V31.7749H25.0981V24.6674Z" fill="#47E6B1"/>
<path opacity="0.5" d="M28.0287 28.8483V27.594H20.9115V28.8483H28.0287Z" fill="#47E6B1"/>
</g>
<g opacity="0.5">
<path opacity="0.5" d="M296.39 13.797H295.134V20.9045H296.39V13.797Z" fill="#47E6B1"/>
<path opacity="0.5" d="M299.321 17.9779V16.7236H292.203V17.9779H299.321Z" fill="#47E6B1"/>
</g>
<path opacity="0.5" d="M9.1452 105.968C8.79908 105.817 8.52047 105.545 8.3624 105.202C8.20434 104.86 8.17786 104.472 8.288 104.111C8.30582 104.056 8.31705 103.999 8.32145 103.941C8.33152 103.775 8.28804 103.611 8.19744 103.473C8.10684 103.334 7.97395 103.228 7.81845 103.171C7.66294 103.114 7.49309 103.108 7.33406 103.155C7.17503 103.201 7.03528 103.298 6.9355 103.43C6.90119 103.477 6.87253 103.528 6.85013 103.581C6.69939 103.927 6.42664 104.205 6.0838 104.363C5.74096 104.521 5.35197 104.547 4.99087 104.437C4.93551 104.42 4.87823 104.408 4.82024 104.404C4.6548 104.394 4.49052 104.437 4.35172 104.528C4.21293 104.618 4.107 104.751 4.04964 104.906C3.99228 105.062 3.98653 105.231 4.03324 105.39C4.07995 105.549 4.17663 105.688 4.30898 105.788C4.35594 105.822 4.40678 105.851 4.46045 105.873C4.80657 106.024 5.08518 106.296 5.24325 106.639C5.40131 106.981 5.42779 107.369 5.31765 107.73C5.29983 107.785 5.2886 107.842 5.2842 107.9C5.27412 108.066 5.31761 108.23 5.40821 108.368C5.49881 108.507 5.6317 108.613 5.78721 108.67C5.94271 108.727 6.11256 108.733 6.27159 108.686C6.43062 108.64 6.57037 108.543 6.67015 108.411C6.70447 108.364 6.73312 108.313 6.75552 108.26C6.90626 107.914 7.17901 107.636 7.52185 107.478C7.86469 107.32 8.25369 107.294 8.61479 107.404C8.67015 107.421 8.72742 107.433 8.78541 107.437C8.95085 107.447 9.11514 107.404 9.25394 107.313C9.39273 107.223 9.49866 107.09 9.55602 106.935C9.61339 106.779 9.61914 106.61 9.57243 106.451C9.52572 106.292 9.42902 106.153 9.29667 106.053C9.24971 106.019 9.19887 105.99 9.1452 105.968Z" fill="#4D8AF0"/>
<path opacity="0.5" d="M81.1548 23.6039C80.8087 23.4533 80.53 23.1809 80.372 22.8386C80.2139 22.4962 80.1874 22.1077 80.2976 21.7471C80.3154 21.6918 80.3266 21.6346 80.331 21.5767C80.3411 21.4115 80.2976 21.2474 80.207 21.1088C80.1164 20.9702 79.9835 20.8645 79.828 20.8072C79.6725 20.7499 79.5027 20.7441 79.3436 20.7908C79.1846 20.8374 79.0448 20.934 78.9451 21.0662C78.9108 21.1131 78.8821 21.1638 78.8597 21.2174C78.709 21.5631 78.4362 21.8413 78.0934 21.9992C77.7505 22.157 77.3615 22.1835 77.0004 22.0735C76.9451 22.0557 76.8878 22.0444 76.8298 22.0401C76.6644 22.03 76.5001 22.0734 76.3613 22.1639C76.2225 22.2544 76.1166 22.3871 76.0592 22.5424C76.0018 22.6977 75.9961 22.8673 76.0428 23.0261C76.0895 23.1849 76.1862 23.3245 76.3186 23.4241C76.3655 23.4584 76.4163 23.487 76.47 23.5094C76.8161 23.6599 77.0947 23.9323 77.2528 24.2747C77.4109 24.617 77.4374 25.0055 77.3272 25.3661C77.3094 25.4214 77.2982 25.4786 77.2938 25.5365C77.2837 25.7017 77.3272 25.8658 77.4178 26.0044C77.5084 26.143 77.6413 26.2488 77.7968 26.3061C77.9523 26.3633 78.1221 26.3691 78.2811 26.3224C78.4402 26.2758 78.5799 26.1792 78.6797 26.0471C78.714 26.0002 78.7427 25.9494 78.7651 25.8958C78.9158 25.5501 79.1886 25.2719 79.5314 25.1141C79.8743 24.9562 80.2633 24.9298 80.6244 25.0398C80.6797 25.0576 80.737 25.0688 80.795 25.0732C80.9604 25.0832 81.1247 25.0398 81.2635 24.9493C81.4023 24.8589 81.5082 24.7261 81.5656 24.5708C81.623 24.4156 81.6287 24.2459 81.582 24.0871C81.5353 23.9283 81.4386 23.7887 81.3062 23.6891C81.2593 23.6548 81.2084 23.6262 81.1548 23.6039Z" fill="#4D8AF0"/>
<path opacity="0.5" d="M169.073 237.248C168.727 237.098 168.449 236.825 168.291 236.483C168.133 236.141 168.106 235.752 168.216 235.391C168.234 235.336 168.245 235.279 168.25 235.221C168.26 235.056 168.216 234.892 168.126 234.753C168.035 234.615 167.902 234.509 167.747 234.452C167.591 234.394 167.421 234.389 167.262 234.435C167.103 234.482 166.964 234.578 166.864 234.711C166.829 234.757 166.801 234.808 166.778 234.862C166.628 235.207 166.355 235.486 166.012 235.644C165.669 235.801 165.28 235.828 164.919 235.718C164.864 235.7 164.806 235.689 164.748 235.684C164.583 235.674 164.419 235.718 164.28 235.808C164.141 235.899 164.035 236.031 163.978 236.187C163.92 236.342 163.915 236.512 163.961 236.67C164.008 236.829 164.105 236.969 164.237 237.068C164.284 237.103 164.335 237.131 164.389 237.154C164.735 237.304 165.013 237.577 165.171 237.919C165.33 238.261 165.356 238.65 165.246 239.01C165.228 239.066 165.217 239.123 165.212 239.181C165.202 239.346 165.246 239.51 165.336 239.649C165.427 239.787 165.56 239.893 165.715 239.95C165.871 240.008 166.041 240.013 166.2 239.967C166.359 239.92 166.499 239.824 166.598 239.691C166.633 239.645 166.661 239.594 166.684 239.54C166.834 239.195 167.107 238.916 167.45 238.758C167.793 238.601 168.182 238.574 168.543 238.684C168.598 238.702 168.656 238.713 168.714 238.718C168.879 238.728 169.043 238.684 169.182 238.594C169.321 238.503 169.427 238.371 169.484 238.215C169.542 238.06 169.547 237.89 169.501 237.732C169.454 237.573 169.357 237.433 169.225 237.333C169.178 237.299 169.127 237.271 169.073 237.248Z" fill="#4D8AF0"/>
<path opacity="0.5" d="M321.928 188.141C323.316 188.141 324.44 187.018 324.44 185.632C324.44 184.247 323.316 183.124 321.928 183.124C320.541 183.124 319.416 184.247 319.416 185.632C319.416 187.018 320.541 188.141 321.928 188.141Z" fill="#F55F44"/>
<path opacity="0.5" d="M266.665 204.028C268.052 204.028 269.177 202.905 269.177 201.52C269.177 200.134 268.052 199.011 266.665 199.011C265.278 199.011 264.153 200.134 264.153 201.52C264.153 202.905 265.278 204.028 266.665 204.028Z" fill="#4D8AF0"/>
<path opacity="0.5" d="M47.2871 228.696C48.6744 228.696 49.7991 227.573 49.7991 226.187C49.7991 224.802 48.6744 223.679 47.2871 223.679C45.8998 223.679 44.7751 224.802 44.7751 226.187C44.7751 227.573 45.8998 228.696 47.2871 228.696Z" fill="#47E6B1"/>
<path opacity="0.5" d="M176.234 5.01709C177.622 5.01709 178.746 3.89398 178.746 2.50854C178.746 1.12311 177.622 0 176.234 0C174.847 0 173.723 1.12311 173.723 2.50854C173.723 3.89398 174.847 5.01709 176.234 5.01709Z" fill="#F55F44"/>
<path d="M89.7811 149.467L79.7333 164.519C79.7333 164.519 83.0825 179.988 157.185 179.57C231.288 179.152 237.149 164.519 237.149 164.519L223.334 144.45L181.049 115.602L89.7811 149.467Z" fill="#3A86FF"/>
<path opacity="0.15" d="M89.7811 149.467L79.7333 164.519C79.7333 164.519 83.0825 179.988 157.185 179.57C231.288 179.152 237.149 164.519 237.149 164.519L223.334 144.45L181.049 115.602L89.7811 149.467Z" fill="black"/>
<path d="M303.507 93.6523L171.629 151.767L10.8635 93.6523L158.232 26.7578L230.572 60.0671L233.164 61.2628L303.507 93.6523Z" fill="#3A86FF"/>
<path opacity="0.15" d="M303.507 93.6523L171.629 151.767L10.8635 93.6523L158.232 26.7578L230.572 60.0671L233.164 61.2628L303.507 93.6523Z" fill="black"/>
<path d="M235.893 107.583L233.381 107.734L230.572 60.0671L233.164 61.2628L235.893 107.583Z" fill="#F5F5F5"/>
<path d="M91.4558 93.4433L79.7333 164.519C79.7333 164.519 163.884 137.343 237.149 164.519L226.264 89.2624C226.264 89.2624 127.879 77.1377 91.4558 93.4433Z" fill="#3A86FF"/>
<path d="M235.684 122.083C242.39 122.083 247.825 118.339 247.825 113.721C247.825 109.103 242.39 105.359 235.684 105.359C228.979 105.359 223.543 109.103 223.543 113.721C223.543 118.339 228.979 122.083 235.684 122.083Z" fill="#F5F5F5"/>
</g>

</svg>
