<svg width="260" height="215" viewBox="0 0 260 215" fill="none" xmlns="http://www.w3.org/2000/svg">
<defs>
<linearGradient id="paint0_linear" x1="130.698" y1="163.217" x2="130.698" y2="63.26" gradientUnits="userSpaceOnUse">
<stop stop-color="#808080" stop-opacity="0.25"/>
<stop offset="0.54" stop-color="#808080" stop-opacity="0.12"/>
<stop offset="1" stop-color="#808080" stop-opacity="0.1"/>
</linearGradient>
<clipPath id="clip0">
<rect width="260" height="215" fill="white"/>
</clipPath>
</defs>
<g clip-path="url(#clip0)">
<path opacity="0.1" d="M255.738 95.7384C255.692 96.0434 255.645 96.3485 255.593 96.6535C253.929 107.041 251.212 117.056 247.171 126.25C247.038 126.555 246.903 126.86 246.766 127.165C244.173 132.963 240.988 138.411 237.275 143.403C235.262 146.097 233.068 148.654 230.458 150.501C226.801 153.088 222.524 154.14 218.322 155C213.954 155.896 209.531 156.634 205.117 157.451C203.552 157.735 201.998 158.032 200.453 158.342C196.189 159.197 191.956 160.186 187.825 161.496C182.716 163.13 177.76 165.235 173.096 168.218C172.723 168.454 172.354 168.696 171.989 168.945C171.623 169.19 171.252 169.44 170.896 169.696C170.54 169.953 170.182 170.206 169.829 170.465L169.284 170.873C169.104 171.004 168.928 171.145 168.751 171.276C168.226 171.674 167.708 172.093 167.19 172.496L167.17 172.513C166.829 172.785 166.49 173.057 166.151 173.33C164.239 174.901 162.368 176.546 160.505 178.197L159.329 179.24C158.722 179.774 158.115 180.307 157.508 180.839C157.152 181.152 156.791 181.462 156.432 181.773C156.172 181.999 155.914 182.225 155.649 182.448C154.321 183.584 152.976 184.695 151.604 185.757C151.277 186.011 150.946 186.264 150.622 186.512C147.875 188.596 144.953 190.382 141.897 191.844L141.858 191.863C140.353 192.575 138.804 193.168 137.223 193.637C136.317 193.909 135.412 194.124 134.493 194.293C132.048 194.762 129.551 194.81 127.092 194.435C122.259 193.675 117.729 191.166 112.908 190.327C102.961 188.614 93.3012 194.14 83.9409 198.479C81.6497 199.543 79.3332 200.542 76.9912 201.475C75.4398 202.096 73.8809 202.687 72.3148 203.248C62.7731 206.672 52.9412 209.005 42.972 210.212C38.9019 210.705 34.6574 210.939 30.5137 210.585C28.9488 210.458 27.3917 210.233 25.8495 209.912C20.6035 208.823 15.706 206.511 11.7611 202.287C8.48389 198.83 6.17143 194.312 4.40885 189.598C3.70022 187.704 3.07587 185.766 2.5358 183.785C1.68692 180.681 1.04932 177.51 0.62839 174.299C0.532651 173.575 0.446731 172.848 0.382905 172.12C0.255253 170.873 0.160332 169.62 0.0981425 168.362C-0.245565 161.674 0.343164 154.968 1.84354 148.48C3.51529 141.293 6.30399 134.41 7.53141 127.155C7.58296 126.85 7.62961 126.545 7.67625 126.239C7.8399 125.15 7.96428 124.041 8.04939 122.911C8.668 114.038 6.27453 105.353 4.3843 96.6535C4.31802 96.3485 4.25174 96.0434 4.18791 95.7384C3.98334 94.7743 3.78941 93.8092 3.60612 92.8433C1.85581 83.6431 1.37712 73.7975 2.93103 64.6164C2.98013 64.3113 3.03659 64.0036 3.09305 63.7012C4.14127 58.0145 5.99222 52.6055 8.82757 47.7875C11.7366 42.8415 15.5563 38.7263 19.6289 35.1094C21.6173 33.3481 23.6737 31.7004 25.7979 30.1661C27.3248 29.0658 28.8796 28.0245 30.4621 27.0422C43.2494 19.1439 57.8385 15.2846 72.2632 16.148C73.0275 16.1916 73.7901 16.2497 74.5511 16.3223C75.3498 16.3986 76.1459 16.4894 76.9397 16.5947C86.2263 17.7849 95.2626 20.7345 104.245 23.9619C107.255 25.0513 110.257 26.1407 113.259 27.2301C114.595 27.7131 115.929 28.1897 117.263 28.66C123.805 30.9505 130.455 33.0177 137.167 34.5756C138.723 34.9387 140.278 35.2701 141.831 35.5697C147.23 36.6428 152.695 37.2673 158.178 37.438C160.305 37.4961 162.433 37.4716 164.56 37.3645C165.636 37.31 166.712 37.2301 167.789 37.1248C178.911 36.0681 189.637 32.5247 200.406 29.1965C201.962 28.7145 203.521 28.2351 205.07 27.7721C207.118 27.1621 209.167 26.571 211.225 26.0263C224.034 22.6137 235.449 24.5747 247.357 31.6123C250.058 33.2111 252.758 35.1393 254.427 38.1244C256.097 41.1094 256.502 44.8052 256.811 48.3622C257.248 53.4226 257.547 58.5537 257.643 63.7067C257.643 64.0117 257.643 64.3168 257.66 64.6218C257.876 75.0557 257.304 85.5687 255.738 95.7384Z" fill="#3A86FF"/>
<path opacity="0.1" d="M170.779 126.25H169.941V126.656V127.165H170.889L170.779 126.25ZM161.291 126.25C161.289 126.258 161.289 126.265 161.291 126.272L161.217 127.029V127.097V127.165H168.483V127.111L169.001 126.25H161.291ZM141.861 126.25V96.6535H150.207C150.119 96.5718 150.028 96.49 149.934 96.4138L149.812 96.3103C149.76 96.264 149.709 96.2204 149.655 96.1796C149.601 96.1387 149.473 96.0352 149.377 95.9644C149.281 95.8936 149.223 95.8473 149.132 95.7901L149.075 95.7492H149.063H141.861V94.1287L141.667 94.2322L141.46 94.3602H141.446L141.401 94.3902L141.274 94.4828C141.23 94.5127 141.185 94.5427 141.144 94.5754C141.016 94.6707 140.898 94.7742 140.763 94.8804L140.64 94.9894C140.557 95.0602 140.478 95.1337 140.395 95.2072C140.068 95.5041 139.747 95.8146 139.413 96.1006C139.33 96.1741 139.246 96.2449 139.168 96.313C138.989 96.458 138.804 96.5926 138.613 96.7161C138.533 96.7708 138.451 96.8208 138.367 96.8659L138.23 96.9367L138.105 96.9966C137.81 97.1346 137.504 97.2422 137.191 97.318V126.25H124.672C124.672 126.283 124.689 126.313 124.696 126.346C124.765 126.618 124.834 126.89 124.9 127.163H137.194V158.889H137.385L137.604 158.906L138.001 158.938L138.645 159.009L138.934 159.047L139.253 159.091H139.3C139.484 159.118 139.671 159.151 139.86 159.184L139.98 159.205L140.25 159.254L140.638 159.331L141.568 159.276L141.696 159.306C141.748 159.306 141.799 159.328 141.853 159.341V127.165H161.2V127.097V127.029L161.273 126.272C161.272 126.265 161.272 126.258 161.273 126.25H141.861ZM170.779 126.25H169.941V126.656V127.165H170.889L170.779 126.25ZM160.768 126.25L160.684 127.165H168.768L169.318 126.25H160.768ZM141.865 126.25V96.6535H150.212C150.124 96.5718 150.033 96.49 149.939 96.4138L149.817 96.3103C149.765 96.264 149.714 96.2204 149.66 96.1796C149.606 96.1387 149.478 96.0352 149.382 95.9644C149.286 95.8936 149.227 95.8473 149.137 95.7901L149.08 95.7492H149.063H141.861V94.1287L141.667 94.2322L141.46 94.3602H141.446L141.401 94.3902L141.274 94.4828C141.23 94.5127 141.185 94.5427 141.144 94.5754C141.016 94.6707 140.898 94.7742 140.763 94.8804L140.64 94.9894C140.557 95.0602 140.478 95.1337 140.395 95.2072C140.068 95.5041 139.747 95.8146 139.413 96.1006C139.33 96.1741 139.246 96.2449 139.168 96.313C138.989 96.458 138.804 96.5926 138.613 96.7161C138.533 96.7708 138.451 96.8208 138.367 96.8659L138.23 96.9367L138.105 96.9966C137.81 97.1346 137.504 97.2422 137.191 97.318V126.25H124.672C124.672 126.283 124.689 126.313 124.696 126.346C124.765 126.618 124.836 126.89 124.902 127.163H137.194V158.887L137.385 158.9L137.604 158.917L138.001 158.949L138.645 159.02L138.934 159.058L139.253 159.102H139.3C139.484 159.129 139.671 159.162 139.86 159.194L139.98 159.216L140.25 159.265L140.638 159.341L141.568 159.287L141.696 159.317C141.748 159.317 141.799 159.339 141.853 159.352V127.165H160.684L160.773 126.25H141.865ZM205.117 64.6163H257.707C257.707 64.3113 257.707 64.0062 257.69 63.7012H205.117V27.7666C203.556 28.2296 201.997 28.709 200.453 29.191V63.7012H143.255L143.11 63.5269L143.328 63.2545L164.602 37.3508C162.475 37.4597 160.347 37.4843 158.22 37.4243L141.861 57.3335V35.5642C140.299 35.2646 138.744 34.9332 137.196 34.5701V56.3312L113.279 27.2246C110.276 26.1352 107.274 25.0267 104.265 23.9564L136.774 63.5269L136.629 63.7012H76.9593V16.5837C76.164 16.4839 75.3678 16.3931 74.5708 16.3114C73.8098 16.2369 73.0471 16.1788 72.2828 16.1371V63.7012H30.4817V27.0422C28.8959 28.0226 27.3412 29.0639 25.8175 30.1661V63.7012H3.08322C3.02676 64.0035 2.9703 64.3113 2.9212 64.6163H25.7979V95.7383H4.1879C4.25173 96.0434 4.31801 96.3484 4.38429 96.6535H25.8077V126.25H7.66887C7.62223 126.555 7.57559 126.86 7.52404 127.165H25.8077V209.921C27.3499 210.241 28.9071 210.466 30.4719 210.593V127.165H72.2828V203.256C73.8507 202.691 75.4095 202.1 76.9593 201.483V127.165H137.186V193.647C138.767 193.179 140.316 192.586 141.821 191.874L141.861 191.855V127.165H200.438V158.342C201.991 158.031 203.546 157.735 205.102 157.451V127.165H246.754C246.891 126.86 247.026 126.555 247.159 126.25H205.117V96.6535H255.596C255.647 96.3484 255.694 96.0434 255.741 95.7383H205.117V64.6163ZM30.4842 64.6163H72.2828V95.7383H30.4817L30.4842 64.6163ZM30.4842 126.25V96.6535H72.2828V126.25H30.4842ZM76.9618 64.6163H137.186V95.7383H76.9593L76.9618 64.6163ZM76.9618 126.25V96.6535H137.186V126.25H76.9618ZM200.44 126.25H141.861V96.6535H200.438L200.44 126.25ZM200.44 95.7465H141.861V65.4497L142.683 64.6163H200.438L200.44 95.7465ZM161.293 126.25C161.292 126.258 161.292 126.265 161.293 126.272L161.219 127.029V127.097V127.165H168.486V127.111L169.004 126.25H161.293ZM170.781 126.25H169.944V126.656V127.165H170.891L170.781 126.25ZM141.863 126.25V96.6535H150.209C150.121 96.5718 150.03 96.49 149.937 96.4138L149.814 96.3103C149.763 96.264 149.711 96.2204 149.657 96.1796C149.603 96.1387 149.475 96.0352 149.38 95.9644C149.284 95.8936 149.225 95.8473 149.134 95.7901L149.078 95.7492H149.065H141.861V94.1287L141.667 94.2322L141.46 94.3602H141.446L141.401 94.3902L141.274 94.4828C141.23 94.5127 141.185 94.5427 141.144 94.5754C141.016 94.6707 140.898 94.7742 140.763 94.8804L140.64 94.9894C140.557 95.0602 140.478 95.1337 140.395 95.2072C140.068 95.5041 139.747 95.8146 139.413 96.1006C139.33 96.1741 139.246 96.2449 139.168 96.313C138.989 96.458 138.804 96.5926 138.613 96.7161C138.533 96.7708 138.451 96.8208 138.367 96.8659L138.23 96.9367L138.105 96.9966C137.81 97.1346 137.504 97.2422 137.191 97.318V126.25H124.672C124.672 126.283 124.689 126.313 124.696 126.346C124.765 126.618 124.834 126.89 124.9 127.163H137.194V158.889H137.385L137.604 158.906L138.001 158.938L138.645 159.009L138.934 159.047L139.253 159.091H139.3C139.484 159.118 139.671 159.151 139.86 159.184L139.98 159.205L140.25 159.254L140.638 159.331L141.568 159.276L141.696 159.306C141.748 159.306 141.799 159.328 141.853 159.341V127.165H161.2V127.097V127.029L161.273 126.272C161.272 126.265 161.272 126.258 161.273 126.25H141.863Z" fill="#3A86FF"/>
<path opacity="0.1" d="M50.5797 43.1874H50.9528C50.8252 43.1054 50.7178 42.9896 50.6402 42.8504C50.5627 42.7111 50.5174 42.5528 50.5085 42.3894C50.5085 41.7575 51.2057 41.2428 52.0575 41.2428H62.8957C63.7475 41.2428 64.4447 41.7575 64.4447 42.3894C64.4447 43.0185 63.7475 43.536 62.8957 43.536H62.5348C62.6619 43.6185 62.7687 43.7345 62.8457 43.8737C62.9228 44.0129 62.9678 44.171 62.9767 44.334C62.9767 44.8787 62.471 45.3254 61.7934 45.448H64.9135C65.7629 45.448 66.4601 45.9627 66.4601 46.5946C66.4601 47.2264 65.7629 47.7385 64.9135 47.7385H54.0631C53.2137 47.7385 52.5166 47.2237 52.5166 46.5946C52.5166 46.0499 53.0223 45.6032 53.6998 45.4806H50.5797C49.7303 45.4806 49.0331 44.9659 49.0331 44.334C49.0331 43.7022 49.7254 43.1874 50.5797 43.1874Z" fill="#3A86FF"/>
<path opacity="0.1" d="M168.049 54.1007H168.412C168.284 54.0182 168.177 53.902 168.099 53.7623C168.022 53.6225 167.977 53.4637 167.968 53.2999C167.968 52.6708 168.665 52.156 169.517 52.156H180.355C181.207 52.156 181.904 52.6708 181.904 53.2999C181.904 53.9318 181.207 54.4465 180.355 54.4465H179.994C180.121 54.5295 180.228 54.6459 180.305 54.7856C180.382 54.9252 180.427 55.0838 180.436 55.2473C180.436 55.792 179.93 56.2359 179.253 56.3585H182.373C183.222 56.3585 183.919 56.876 183.919 57.5051C183.919 58.1342 183.222 58.6517 182.373 58.6517H171.537C170.688 58.6517 169.991 58.137 169.991 57.5051C169.991 56.9604 170.496 56.5137 171.174 56.3939H168.049C167.199 56.3939 166.502 55.8764 166.502 55.2473C166.502 54.6181 167.204 54.1007 168.049 54.1007Z" fill="#3A86FF"/>
<path opacity="0.1" d="M33.953 100.801H34.3163C34.189 100.718 34.0821 100.602 34.0051 100.462C33.928 100.323 33.8831 100.164 33.8744 100.001C33.8744 99.3715 34.5692 98.854 35.421 98.854H46.2591C47.111 98.854 47.8081 99.3715 47.8081 100.001C47.8081 100.633 47.111 101.147 46.2591 101.147H45.8983C46.0255 101.23 46.1324 101.347 46.2095 101.486C46.2866 101.626 46.3314 101.785 46.3401 101.948C46.3401 102.493 45.8344 102.937 45.1569 103.059H48.277C49.1288 103.059 49.8236 103.574 49.8236 104.206C49.8236 104.838 49.1288 105.352 48.277 105.352H37.4364C36.587 105.352 35.8899 104.835 35.8899 104.206C35.8899 103.661 36.398 103.214 37.0731 103.092H33.953C33.1036 103.092 32.4064 102.577 32.4064 101.948C32.4064 101.319 33.1036 100.801 33.953 100.801Z" fill="#3A86FF"/>
<path d="M159.3 179.251C158.693 179.784 158.086 180.317 157.478 180.849C157.122 181.163 156.762 181.473 156.403 181.784C156.143 182.01 155.885 182.236 155.62 182.459C154.292 183.595 152.947 184.706 151.574 185.768C151.248 186.021 150.917 186.275 150.592 186.523C147.846 188.607 144.924 190.393 141.868 191.855L141.829 191.874V179.251H159.3Z" fill="#65617D"/>
<path d="M186.617 129.638L186.892 120.228C186.728 120.087 186.561 119.956 186.401 119.825C186.469 117.02 186.325 114.213 185.969 111.434C184.86 102.024 177.655 101.82 175.622 103.762C175.353 104.02 175.059 104.244 174.746 104.432C174.93 103.089 175.158 101.744 175.323 100.415C176.211 93.2463 174.832 85.1818 169.819 80.5491C167.72 78.6126 165.155 77.4224 162.849 75.8019C158.72 72.9122 155.458 68.6444 151.282 65.831C147.107 63.0176 141.242 61.9635 137.599 65.5804C136.187 66.9803 135.277 68.9222 133.828 70.2731C131.128 72.7897 126.918 72.9558 124.561 75.7665C124.443 75.9081 124.33 76.0525 124.222 76.205C122.259 78.9994 122.796 82.9621 123.422 86.4292C124.176 90.6017 123.864 93.9462 127.09 95.1446C127.102 95.3107 127.112 95.4769 127.129 95.6403C127.391 98.1999 128.155 100.665 129.366 102.863C130.577 105.061 132.206 106.939 134.14 108.365L133.617 108.572C132.223 109.116 130.968 109.645 130.166 110.007C127.22 111.339 121.019 113.074 121.019 113.074C121.019 113.074 120.872 115.035 120.899 117.927C118.832 120.419 115.383 124.799 114.369 127.394C112.896 131.18 104.574 142.022 102.357 143.659C100.14 145.296 97.7371 147.238 97.7371 147.238C97.7371 147.238 94.2267 149.387 92.5648 149.591C91.4135 149.733 87.8515 148.976 87.8515 148.976C87.8515 148.976 73.6256 129.638 74.5487 144.476C75.4717 159.314 86.8352 159.818 86.8352 159.818L98.2919 159.614C98.2919 159.614 104.483 160.534 107.255 157.98C109.621 155.801 121.885 143.847 125.825 138.425C125.916 138.536 126.007 138.645 126.103 138.751C126.103 138.751 127.672 136.502 127.858 138.751C128.045 141.001 126.839 142.02 127.487 142.837C128.135 143.654 130.075 146.519 130.166 147.644C130.256 148.769 127.581 153.363 132.105 156.849C132.176 156.904 132.252 156.956 132.336 157.007C133.143 159.047 135.711 161.044 135.711 161.044L149.569 160.839L175.715 163.089C175.715 163.089 176.493 162.329 177.547 161.087C178.953 162.52 180.905 163.748 183.104 162.994C183.104 162.994 186.247 158.802 186.34 156.04C186.34 156.04 184.307 150.209 183.394 148.472C182.481 146.734 184.042 142.948 184.042 142.948C184.042 142.948 185.149 139.266 185.797 139.266C186.445 139.266 185.981 136.815 185.981 136.815C185.736 136.414 185.583 135.953 185.535 135.472C185.486 134.991 185.545 134.504 185.704 134.053C186.247 132.504 186.617 129.638 186.617 129.638Z" fill="url(#paint0_linear)"/>
<path d="M170.943 127.519L169.961 128.794L165.994 133.92L160.812 134.268L152.517 134.835C152.517 134.835 141.333 119.883 143.434 116.628C144.198 115.454 144.323 113.904 144.171 112.442C144.151 112.24 144.124 112.039 144.092 111.84C143.841 110.292 143.401 108.79 142.786 107.373L143.061 107.234L143.238 107.145L153.018 102.193L155.438 100.968C155.559 101.708 155.782 102.423 156.101 103.086C156.148 103.19 156.199 103.293 156.253 103.392C159.589 109.519 170.288 105.644 170.288 105.644L170.943 127.519Z" fill="#EE8E9E"/>
<path d="M185.405 119.869C185.331 123.579 184.786 125.18 184.786 125.18L170.943 127.519L170.425 123.532L168.375 107.787L170.3 105.652C171.069 105.836 171.866 105.822 172.629 105.61C173.392 105.399 174.101 104.996 174.701 104.432C176.717 102.498 183.868 102.702 184.968 112.058C185.291 114.646 185.437 117.257 185.405 119.869Z" fill="#EE8E9E"/>
<path d="M182.127 163.318C182.127 163.318 185.243 159.148 185.336 156.403L182.218 150.604L179.469 147.336L174.333 158.334C174.333 158.334 177.726 164.843 182.127 163.318Z" fill="#DFE5EE"/>
<path opacity="0.1" d="M182.127 163.318C182.127 163.318 185.243 159.148 185.336 156.403L182.218 150.604L179.469 147.336L174.333 158.334C174.333 158.334 177.726 164.843 182.127 163.318Z" fill="black"/>
<path d="M156.403 181.784C156.143 182.01 155.885 182.236 155.62 182.459C154.292 183.595 152.947 184.706 151.574 185.768C151.248 186.021 150.917 186.275 150.593 186.523H137.187H76.9594H72.283L49.1141 185.602L30.4818 185.428L25.8176 185.155L2.54571 183.794C1.69315 180.687 1.05227 177.513 0.62848 174.299C0.532741 173.575 0.446822 172.848 0.382996 172.12L25.8078 173.684L30.472 173.975L72.2731 176.563L76.9496 176.851L137.177 180.582L141.812 180.871H141.851L156.403 181.784Z" fill="#D48A9B"/>
<path d="M187.808 161.496C182.7 163.13 177.743 165.235 173.079 168.218C172.709 168.454 172.343 168.697 171.972 168.945C171.601 169.193 171.236 169.44 170.88 169.696C170.524 169.952 170.165 170.206 169.812 170.464L169.267 170.873L168.734 171.276C168.209 171.676 167.691 172.093 167.173 172.496L167.153 172.513C166.812 172.785 166.473 173.057 166.134 173.33C164.222 174.901 162.352 176.546 160.488 178.197C160.096 178.545 159.702 178.893 159.308 179.24L157.491 180.838C157.135 181.152 156.774 181.462 156.416 181.773C156.155 181.999 155.898 182.225 155.633 182.448L141.885 181.721H141.846L137.211 181.481L76.9573 178.314L72.2808 178.066L30.4797 175.863L25.8155 175.615L0.626317 174.299C0.530578 173.575 0.444658 172.848 0.380832 172.12C0.25318 170.873 0.158259 169.62 0.0960693 168.362L25.813 158.285L30.4772 156.452L34.7143 154.79L42.4348 155.237L60.2791 156.253L72.2882 156.953L76.9646 157.225L79.9522 157.4L80.6665 157.443L105.809 158.9L106.074 158.919L117.293 159.568H117.42H117.494L118.616 159.63L122.441 159.853L127.223 160.126L128.799 160.218L129.096 160.238L131.325 160.366L131.961 160.401L134.089 160.526L134.936 160.578H134.963H135.14L137.13 160.695L140.214 160.875H140.228L141.186 160.929H141.289L141.861 160.965L143.265 161.046L144.493 161.117H144.505L145.882 161.196H145.904L146.947 161.259L147.748 161.305L150.588 161.471L151.099 161.501H151.275L151.521 161.518L152.353 161.567L152.726 161.588L155.623 161.755H155.888L160.164 161.714H160.194L176.452 161.567H176.764H177.093H178.06L183.294 161.52H184.074L187.808 161.496Z" fill="#EFC6CD"/>
<path d="M78.0812 161.869L79.5934 170.794L120.707 170.108C120.707 170.108 123.8 171.099 123.732 168.354C123.732 168.354 129.989 161.793 161.683 169.421L149.515 158.819L116.252 160.801L77.6811 159.657L78.0812 161.869Z" fill="#3A86FF"/>
<path d="M78.8373 159.734L80.2807 169.421C80.2807 169.421 115.63 168.277 121.188 169.345L116.988 160.496C116.988 160.496 95.6137 158.285 78.8373 159.734Z" fill="#F0F0F0"/>
<path opacity="0.1" d="M78.8373 159.734L80.2807 169.421C80.2807 169.421 115.63 168.277 121.188 169.345L116.988 160.496C116.988 160.496 95.6137 158.285 78.8373 159.734Z" fill="black"/>
<path d="M79.3651 159.698L80.7889 168.708C80.7889 168.708 115.689 167.646 121.188 168.637L117.047 160.409C117.047 160.409 95.9303 158.35 79.3651 159.698Z" fill="#F0F0F0"/>
<path opacity="0.1" d="M80.0057 159.976L81.3927 168.403C81.3927 168.403 115.527 167.409 120.916 168.337L116.865 160.638C116.865 160.638 96.2102 158.704 80.0057 159.976Z" fill="black"/>
<path d="M80.2807 159.668L81.6751 168.111C81.6751 168.111 115.81 167.117 121.198 168.046L117.138 160.338C117.138 160.338 96.4851 158.407 80.2807 159.668Z" fill="#F0F0F0"/>
<path d="M56.13 136.755C56.13 136.755 57.9171 139.345 55.3076 143.259C52.6981 147.173 50.5427 150.474 51.4142 152.914C51.4142 152.914 55.342 145.647 58.5578 145.56C61.7737 145.473 59.6576 141.124 56.13 136.755Z" fill="#3A86FF"/>
<path opacity="0.1" d="M56.13 136.755C56.2871 137.006 56.4103 137.281 56.4958 137.572C59.6233 141.657 61.2901 145.47 58.2829 145.552C55.482 145.639 52.1237 151.195 51.3185 152.601C51.3464 152.706 51.3783 152.812 51.4143 152.919C51.4143 152.919 55.342 145.653 58.5579 145.566C61.7737 145.479 59.6576 141.124 56.13 136.755Z" fill="black"/>
<path d="M59.4514 140.059C59.4514 140.968 59.3581 141.709 59.2452 141.709C59.1323 141.709 59.039 140.968 59.039 140.059C59.039 139.149 59.1544 139.574 59.2673 139.574C59.3802 139.574 59.4514 139.146 59.4514 140.059Z" fill="#FFD037"/>
<path d="M60.5905 141.145C59.8687 141.584 59.2403 141.848 59.1863 141.736C59.1323 141.625 59.6773 141.192 60.3941 140.745C61.1109 140.298 60.831 140.625 60.885 140.745C60.939 140.865 61.3122 140.71 60.5905 141.145Z" fill="#FFD037"/>
<path d="M46.696 136.755C46.696 136.755 44.9089 139.345 47.5208 143.259C50.1328 147.173 52.2832 150.474 51.4142 152.914C51.4142 152.914 47.4742 145.647 44.2681 145.56C41.0621 145.473 43.1684 141.124 46.696 136.755Z" fill="#3A86FF"/>
<path opacity="0.1" d="M46.696 136.755C46.5402 137.007 46.4171 137.282 46.3302 137.572C43.2027 141.657 41.5359 145.47 44.5431 145.552C47.3441 145.639 50.7048 151.195 51.5099 152.601C51.4838 152.706 51.4519 152.812 51.4142 152.919C51.4142 152.919 47.4742 145.653 44.2681 145.566C41.0621 145.479 43.1684 141.124 46.696 136.755Z" fill="black"/>
<path d="M43.3746 140.059C43.3746 140.968 43.4679 141.709 43.5808 141.709C43.6938 141.709 43.787 140.968 43.787 140.059C43.787 139.149 43.6717 139.574 43.5587 139.574C43.4458 139.574 43.3746 139.146 43.3746 140.059Z" fill="#FFD037"/>
<path d="M42.2356 141.145C42.9574 141.584 43.5883 141.848 43.6423 141.736C43.6963 141.625 43.1513 141.192 42.4345 140.745C41.7177 140.298 41.9975 140.625 41.9435 140.745C41.8895 140.865 41.5139 140.71 42.2356 141.145Z" fill="#FFD037"/>
<path d="M61.0176 149.42L60.9292 150.237L60.804 151.378L60.7525 151.854L60.6273 152.998L60.5732 153.475L60.4456 154.619L59.0169 167.616C58.8892 168.776 57.1806 169.68 55.1186 169.68H47.7C45.638 169.68 43.9318 168.776 43.8042 167.616L42.373 154.619L42.2478 153.475L42.1963 152.998L42.0686 151.854L42.0171 151.378L41.8919 150.237L41.801 149.42C41.7298 148.763 42.6529 148.21 43.8214 148.21H59.0071C60.1731 148.21 61.0986 148.763 61.0176 149.42Z" fill="#65617D"/>
<path d="M60.9365 150.228L60.8113 151.372H42.017L41.8918 150.228H60.9365Z" fill="#9D9CB5"/>
<path d="M60.7599 151.849L60.6347 152.993H42.1964L42.0687 151.849H60.7599Z" fill="#9D9CB5"/>
<path d="M60.5807 153.469L60.4555 154.611H42.3731L42.2479 153.469H60.5807Z" fill="#9D9CB5"/>
<path d="M83.6734 148.368C83.6734 148.368 78.9061 143.283 79.0902 149.894C79.2743 156.504 83.6734 148.368 83.6734 148.368Z" fill="#EE8E9E"/>
<path d="M126.484 136.774C126.378 137.286 125.865 138.136 125.065 139.201C120.931 144.724 109.17 156.204 106.864 158.334C104.115 160.878 97.9729 159.968 97.9729 159.968L86.607 160.172C86.607 160.172 75.3319 159.663 74.4138 144.92C73.4957 130.178 87.6135 149.395 87.6135 149.395C87.6135 149.395 91.1485 150.147 92.29 150.005C93.9396 149.804 97.4231 147.668 97.4231 147.668C97.4231 147.668 99.8067 145.735 102.006 144.109C104.206 142.483 112.457 131.7 113.925 127.936C114.855 125.548 117.852 121.642 119.922 119.109C121.11 117.652 121.991 116.658 121.991 116.658C121.991 116.658 127.124 133.62 126.484 136.774Z" fill="#EE8E9E"/>
<path opacity="0.1" d="M126.483 136.774C126.378 137.286 125.865 138.136 125.065 139.201C120.891 134.486 120.02 125.079 119.922 119.098C121.11 117.641 121.991 116.647 121.991 116.647C121.991 116.647 127.124 133.62 126.483 136.774Z" fill="black"/>
<path opacity="0.1" d="M169.959 128.794L165.994 133.92L160.812 134.268L152.517 134.835C152.517 134.835 141.333 119.883 143.434 116.628C144.198 115.454 144.323 113.904 144.171 112.442C144.151 112.24 144.124 112.039 144.092 111.84C143.841 110.292 143.401 108.79 142.786 107.373L143.061 107.234L143.238 107.145C143.674 108.494 143.976 109.892 144.136 111.314C144.163 111.508 144.188 111.709 144.212 111.916C144.298 112.652 144.377 113.469 144.458 114.367C145.096 122.598 149.763 125.695 151.869 126.681C152.546 126.997 153.208 127.353 153.853 127.746C155.879 128.985 158.216 129.454 160.505 129.08C165.705 128.323 169.944 124.131 169.944 124.131L169.966 128.258L169.959 128.794Z" fill="black"/>
<path d="M170.118 160.777C170.118 160.777 136.018 160.673 131.523 157.217C127.028 153.761 129.692 149.183 129.599 148.063C129.505 146.944 127.583 144.098 126.942 143.281C126.302 142.464 127.492 141.45 127.308 139.214C127.124 136.978 125.568 139.214 125.568 139.214C119.148 131.992 120.523 113.687 120.523 113.687C120.523 113.687 126.66 111.96 129.606 110.633C130.404 110.274 131.646 109.762 133.043 109.209L133.561 109.002C137.162 107.572 141.443 105.957 141.443 105.957C141.443 105.957 142.266 105.312 143.093 107.243C143.471 108.13 143.851 109.56 144.156 111.845C144.183 112.039 144.207 112.24 144.232 112.447C144.318 113.183 144.396 114 144.477 114.899C145.116 123.129 149.782 126.226 151.889 127.212C152.566 127.529 153.228 127.884 153.872 128.277C155.898 129.517 158.235 129.985 160.525 129.611C165.724 128.854 169.964 124.662 169.964 124.662L169.986 128.789L170.049 141.186L170.118 160.777Z" fill="#DFE5EE"/>
<path d="M168.65 144.708L168.1 148.573C168.1 148.573 154.532 152.334 149.218 153.453C143.903 154.573 132.441 153.148 131.616 155.588C130.792 158.029 135.1 161.387 135.1 161.387L148.847 161.183L174.79 163.421C174.79 163.421 184.69 153.758 181.482 147.045C178.273 140.331 168.65 144.708 168.65 144.708Z" fill="#EE8E9E"/>
<path opacity="0.1" d="M140.692 114.196C140.692 114.196 134.457 119.891 135.65 122.639C136.843 125.387 140.692 114.196 140.692 114.196Z" fill="black"/>
<path opacity="0.1" d="M132.991 124.466C132.991 124.466 126.665 136.57 127.033 137.485C127.401 138.4 129.142 141.655 129.049 139.214C128.955 136.774 132.991 124.466 132.991 124.466Z" fill="black"/>
<path opacity="0.1" d="M135.559 126.604C135.559 126.604 134.086 134.13 132.625 137.283C131.165 140.437 135.559 126.604 135.559 126.604Z" fill="black"/>
<path opacity="0.1" d="M156.266 103.4C155.053 105.866 153.327 107.974 151.23 109.548C149.133 111.122 146.726 112.116 144.212 112.447H144.183C140.228 112.963 136.243 111.805 133.023 109.206C136.705 107.73 141.424 105.954 141.424 105.954C141.424 105.954 142.246 105.309 143.073 107.24L155.451 100.976C155.59 101.831 155.866 102.652 156.266 103.4Z" fill="black"/>
<path d="M158.2 94.363C158.205 97.4259 157.485 100.437 156.113 103.095C155.458 104.362 154.664 105.535 153.749 106.586C151.197 109.534 147.797 111.399 144.136 111.859H144.104C143.519 111.933 142.931 111.971 142.342 111.971C138.445 111.971 134.685 110.379 131.779 107.5C128.872 104.621 127.023 100.655 126.584 96.3593C126.516 95.7002 126.482 95.0373 126.483 94.3738C126.483 89.7076 128.154 85.2324 131.128 81.9329C134.102 78.6334 138.136 76.7797 142.342 76.7797C146.548 76.7797 150.581 78.6334 153.555 81.9329C156.529 85.2324 158.2 89.7076 158.2 94.3738V94.363Z" fill="#EE8E9E"/>
<path opacity="0.1" d="M168.469 127.656L169.942 125.204C169.942 125.204 178.008 114.525 185.898 121.34L185.623 130.698C185.623 130.698 185.255 133.544 184.705 135.056C184.547 135.504 184.489 135.988 184.537 136.467C184.585 136.946 184.737 137.404 184.98 137.804C184.98 137.804 185.439 140.255 184.798 140.255C184.157 140.255 183.055 143.915 183.055 143.915C183.055 143.915 181.496 147.679 182.415 149.409C183.333 151.138 185.348 156.934 185.348 156.934C185.348 156.934 182.14 154.799 181.221 151.239C181.221 151.239 173.43 144.525 167.379 148.788L168.469 127.656Z" fill="black"/>
<path opacity="0.1" d="M185.405 119.869C185.331 123.578 184.786 125.18 184.786 125.18L170.943 127.519L170.425 123.532C172.237 121.435 178.826 114.768 185.405 119.869Z" fill="black"/>
<path d="M168.469 127.111L169.942 124.66C169.942 124.66 178.008 113.981 185.898 120.795L185.623 130.153C185.623 130.153 185.255 132.999 184.705 134.511C184.547 134.959 184.489 135.444 184.537 135.922C184.585 136.401 184.737 136.86 184.98 137.259C184.98 137.259 185.439 139.71 184.798 139.71C184.157 139.71 183.055 143.37 183.055 143.37C183.055 143.37 181.496 147.134 182.415 148.864C183.333 150.593 185.348 156.389 185.348 156.389C185.348 156.389 182.14 154.254 181.221 150.694C181.221 150.694 173.43 143.981 167.379 148.243L168.469 127.111Z" fill="#DFE5EE"/>
<path opacity="0.1" d="M181.484 120.196C181.484 120.196 168.194 129.249 168.834 137.188C168.834 137.188 176.26 122.636 181.484 120.196Z" fill="black"/>
<path opacity="0.1" d="M169.956 128.797L170.02 141.194C167.506 141.32 165.137 140.957 163.264 139.152C161.961 137.893 161.202 136.156 160.81 134.277C160.517 132.762 160.41 131.212 160.49 129.666C160.489 129.65 160.489 129.635 160.49 129.619C160.645 126.196 161.355 122.772 160.981 119.371C160.608 115.969 158.75 112.379 155.716 111.663C155.117 111.519 154.444 111.467 154.017 110.979C153.546 110.435 153.568 109.588 153.619 108.833L153.708 107.561C153.73 107.234 153.74 106.91 153.74 106.586C153.738 103.695 152.831 100.893 151.175 98.661C149.518 96.4287 147.214 94.9037 144.657 94.3466L144.558 94.3275C143.704 94.1369 142.816 93.949 141.961 94.1668C140.336 94.5835 139.285 96.3321 137.788 97.1627C134.916 98.7533 130.126 97.0129 127.119 96.4655C126.923 96.4301 126.736 96.3893 126.557 96.343C126.489 95.6839 126.455 95.0209 126.456 94.3575C126.458 91.6627 127.017 89.0042 128.09 86.587C129.164 84.1699 130.724 82.0587 132.65 80.4164C134.576 78.774 136.816 77.6444 139.197 77.1147C141.579 76.5849 144.038 76.6692 146.386 77.361C148.733 78.0528 150.906 79.3336 152.737 81.1047C154.568 82.8758 156.007 85.0897 156.945 87.5758C157.882 90.0619 158.292 92.7536 158.143 95.4433C157.995 98.1331 157.291 100.749 156.086 103.089C156.133 103.193 156.185 103.296 156.239 103.394C159.575 109.522 170.273 105.647 170.273 105.647L170.916 127.514L169.956 128.797Z" fill="black"/>
<path d="M138.365 96.8604C139.853 96.027 140.903 94.2785 142.538 93.8645C143.39 93.6466 144.279 93.8346 145.138 94.0225L145.236 94.0443C147.94 94.6379 150.354 96.3112 152.02 98.7472C153.687 101.183 154.49 104.213 154.277 107.262L154.189 108.534C154.135 109.285 154.113 110.138 154.589 110.677C155.014 111.165 155.686 111.222 156.285 111.358C159.32 112.077 161.178 115.648 161.551 119.068C161.924 122.489 161.202 125.924 161.06 129.361C160.918 132.798 161.487 136.592 163.829 138.849C167.511 142.39 173.108 140.375 177.981 140.051C175.826 140.051 174.211 137.583 174.093 135.197C173.975 132.811 174.932 130.54 175.848 128.388C176.764 126.237 177.682 123.922 177.478 121.541C177.198 118.273 174.876 115.656 173.987 112.51C172.951 108.85 173.951 104.919 174.419 101.115C175.301 93.9898 173.928 85.9689 168.957 81.3634C166.876 79.4378 164.33 78.2531 162.042 76.6408C157.942 73.7565 154.709 69.5268 150.566 66.7216C146.422 63.9163 140.604 62.8759 136.988 66.471C135.589 67.8627 134.685 69.7937 133.247 71.1364C130.436 73.7647 125.968 73.8137 123.715 77.0384C121.775 79.8137 122.301 83.7547 122.922 87.2C123.749 91.7946 123.282 95.3706 127.709 96.1877C130.703 96.7134 135.49 98.4537 138.365 96.8604Z" fill="#603556"/>
<path opacity="0.1" d="M174.834 137.855C171.287 138.337 167.771 138.585 165.189 136.101C162.847 133.844 162.27 130.052 162.42 126.613C162.57 123.173 163.286 119.736 162.911 116.318C162.535 112.899 160.679 109.329 157.645 108.61C157.046 108.468 156.376 108.417 155.949 107.929C155.475 107.384 155.495 106.535 155.549 105.783L155.637 104.511C155.849 101.462 155.046 98.4331 153.38 95.9976C151.713 93.562 149.3 91.8892 146.596 91.2962L146.498 91.2745C145.639 91.0865 144.75 90.8986 143.898 91.1165C142.273 91.5332 141.222 93.2953 139.725 94.1124C136.85 95.7057 132.066 93.9653 129.054 93.4179C124.635 92.6144 125.096 89.033 124.267 84.4302C123.803 81.8591 123.393 79.0103 124.021 76.5754C123.903 76.7143 123.79 76.8478 123.682 77.0139C121.743 79.7892 122.268 83.7302 122.889 87.1755C123.717 91.7701 123.25 95.3462 127.676 96.1632C130.686 96.7079 135.473 98.451 138.348 96.8577C139.835 96.0243 140.886 94.2758 142.521 93.8618C143.373 93.6439 144.261 93.8319 145.121 94.0198L145.219 94.0416C147.923 94.6352 150.336 96.3085 152.003 98.7445C153.669 101.181 154.472 104.21 154.26 107.259L154.172 108.531C154.118 109.283 154.095 110.135 154.572 110.674C154.996 111.162 155.669 111.219 156.268 111.355C159.302 112.074 161.161 115.645 161.534 119.066C161.907 122.486 161.188 125.921 161.043 129.358C160.898 132.795 161.47 136.589 163.812 138.847C167.494 142.387 173.091 140.372 177.964 140.048C176.641 140.056 175.529 139.125 174.834 137.855Z" fill="black"/>
<path d="M75.2066 146.941L90.3408 140.677C90.6985 140.529 91.0947 140.544 91.4422 140.72C91.7897 140.896 92.0602 141.217 92.1942 141.614C92.3277 142.011 92.3138 142.45 92.1555 142.836C91.9971 143.221 91.7073 143.522 91.3497 143.67L76.2156 149.934L72.9703 149.575L75.2066 146.941Z" fill="#5C5C8E"/>
<path opacity="0.1" d="M91.7376 141.102C91.8711 141.499 91.8568 141.939 91.698 142.325C91.5391 142.71 91.2488 143.01 90.8907 143.158L75.7468 149.444L73.3116 149.172L72.9605 149.586L76.2058 149.945L91.3399 143.681C91.6975 143.532 91.9874 143.232 92.1457 142.847C92.304 142.461 92.318 142.022 92.1844 141.625C92.0729 141.294 91.8657 141.013 91.5952 140.827C91.6497 140.914 91.6973 141.006 91.7376 141.102Z" fill="#F0F0F0"/>
<path d="M75.2091 146.941L76.2156 149.934L73.5545 149.637L72.9727 149.572L73.7681 148.635L75.2091 146.941Z" fill="#EFC8C4"/>
<path d="M73.7655 148.627C73.8277 148.679 73.8809 148.742 73.9226 148.815C73.9475 148.859 73.9607 148.909 73.9607 148.961C73.9607 149.012 73.9475 149.063 73.9226 149.106C73.8808 149.154 73.8318 149.194 73.7778 149.223C73.717 149.269 73.6661 149.328 73.6287 149.398C73.5913 149.468 73.5685 149.546 73.5618 149.627L72.9775 149.564L73.7655 148.627Z" fill="#727A9C"/>
<path d="M122.725 166.058C122.725 166.058 135.834 163.005 157.829 166.875L149.213 159.859L133.536 156.299L122.445 159.568L122.725 166.058Z" fill="#F0F0F0"/>
<path opacity="0.1" d="M122.725 166.058C122.725 166.058 135.834 163.005 157.829 166.875L149.213 159.859L133.536 156.299L122.445 159.568L122.725 166.058Z" fill="black"/>
<path d="M121.188 169.359C121.188 169.359 127.789 149.548 161.693 169.421L149.525 160.733C149.525 160.733 120.373 151.797 117.005 162.095L121.188 169.359Z" fill="#F0F0F0"/>
<path opacity="0.1" d="M121.188 169.345C121.188 169.345 127.789 148.164 161.693 169.726L149.524 160.303C149.524 160.303 120.363 149.616 116.988 160.801L121.188 169.345Z" fill="black"/>
<path d="M121.188 169.353C121.188 169.353 127.789 147.859 161.693 169.421L149.525 159.998C149.525 159.998 120.373 149.616 117.005 160.815L121.188 169.353Z" fill="#F0F0F0"/>
<path opacity="0.1" d="M121.188 169.359C121.188 169.359 127.789 145.47 161.693 169.726L149.515 159.124C149.515 159.124 120.363 148.229 116.995 160.801L121.188 169.359Z" fill="black"/>
<path d="M121.188 169.345C121.188 169.345 127.789 145.165 161.693 169.421L149.515 158.819C149.515 158.819 120.363 147.924 116.995 160.496L121.188 169.345Z" fill="#F0F0F0"/>
<path opacity="0.1" d="M222.903 167.068C222.903 167.068 214.765 176.74 222.09 181.438C222.09 181.438 223.047 182.718 224.415 182.048C224.415 182.048 223.953 181.593 224.879 180.716C225.206 180.401 225.498 180.045 225.75 179.654C226.092 179.126 226.269 178.489 226.256 177.84C226.256 177.84 227.321 174.002 223.936 169.021C223.936 169.021 223.629 167.354 223.369 167.172L222.75 169.495C222.75 169.495 224.304 169.933 224.888 171.246C224.888 171.246 222.841 169.462 222.642 169.835C222.603 169.912 222.365 171.085 222.365 171.085C222.365 171.085 225.065 171.859 225.91 173.918C225.91 173.918 223.727 171.431 222.272 171.529L222.006 173.321C222.006 173.321 224.896 173.986 225.934 176.29C225.934 176.29 223.573 173.776 221.967 173.719L221.921 175.519C221.921 175.519 224.726 176.227 225.583 178.15C225.583 178.15 222.591 175.555 221.935 175.933C221.935 175.933 221.982 177.592 222.181 178.025C222.181 178.025 224.184 178.57 224.591 179.752C224.591 179.752 222.426 178.251 222.24 178.48C222.24 178.48 222.821 180.621 223.632 181.533C223.632 181.533 222.345 180.283 221.943 178.597C221.943 178.597 221.398 179.651 221.535 180.686C221.535 180.686 220.732 179.7 221.808 178.077C221.808 178.077 221.415 176.388 221.513 176.121C221.513 176.121 220.249 177.557 219.925 178.845C219.925 178.845 219.679 177.232 221.511 175.656V173.842C221.511 173.842 219.748 175.642 219.385 176.756C219.385 176.756 219.36 175.067 221.547 173.387L221.793 171.625C221.793 171.625 220.168 173.046 219.522 174.19C219.522 174.19 219.802 172.616 221.879 171.124L222.166 169.969C222.166 169.969 220.998 171.031 220.693 171.369C220.389 171.706 220.273 171.641 220.273 171.641C220.752 170.728 221.448 169.979 222.286 169.479C222.286 169.479 223.038 167.131 222.903 167.068Z" fill="#3A86FF"/>
<path opacity="0.1" d="M259.281 9.70129C259.281 9.70129 248.408 15.1484 253.534 22.6082C253.534 22.6082 253.973 24.2015 255.466 24.1688C255.466 24.1688 255.198 23.5506 256.357 23.1366C256.769 22.9873 257.163 22.7834 257.531 22.5292C258.029 22.1884 258.414 21.677 258.628 21.0721C258.628 21.0721 260.945 17.9891 259.553 11.9455C259.553 11.9455 259.85 10.276 259.674 9.99544L258.294 11.8747C258.294 11.8747 259.575 12.9423 259.659 14.4049C259.659 14.4049 258.392 11.8829 258.078 12.1443C258.014 12.1961 257.388 13.1765 257.388 13.1765C257.388 13.1765 259.598 15.0449 259.674 17.3082C259.674 17.3082 258.525 14.078 257.145 13.5442L256.279 15.0858C256.279 15.0858 258.714 16.935 258.876 19.5061C258.876 19.5061 257.57 16.1779 256.109 15.4371L255.439 17.0712C255.439 17.0712 257.783 18.926 257.894 21.0667C257.894 21.0667 256.036 17.3899 255.299 17.4607C255.299 17.4607 254.766 19.0077 254.808 19.4952C254.808 19.4952 256.463 20.857 256.433 22.1207C256.433 22.1207 254.96 19.8111 254.715 19.9418C254.715 19.9418 254.506 22.1643 254.938 23.3545C254.938 23.3545 254.185 21.6495 254.401 19.9228C254.401 19.9228 253.529 20.6636 253.298 21.6768C253.298 21.6768 252.901 20.4212 254.457 19.3835C254.457 19.3835 254.68 17.6595 254.865 17.4552C254.865 17.4552 253.198 18.2369 252.456 19.2773C252.456 19.2773 252.788 17.684 255.029 17.014L255.667 15.3472C255.667 15.3472 253.416 16.2514 252.692 17.123C252.692 17.123 253.257 15.5542 255.859 14.9441L256.696 13.4244C256.696 13.4244 254.703 14.0426 253.708 14.8188C253.708 14.8188 254.516 13.4898 256.951 12.9995L257.616 12.0572C257.616 12.0572 256.168 12.5365 255.763 12.7163C255.358 12.896 255.272 12.7898 255.272 12.7898C256.035 12.1493 256.944 11.757 257.896 11.6568C257.896 11.6568 259.369 9.81024 259.281 9.70129Z" fill="#3A86FF"/>
<path opacity="0.1" d="M156.087 13.0731C156.087 13.0731 139.752 18.2478 147.693 25.95C147.693 25.95 148.398 27.5841 150.659 27.5841C150.659 27.5841 150.237 26.9523 151.984 26.5683C152.586 26.434 153.176 26.2408 153.747 25.9909C154.42 25.7291 154.993 25.221 155.372 24.5501C155.372 24.5501 158.809 21.4997 156.553 15.3499C156.553 15.3499 156.963 13.6722 156.688 13.3835L154.646 15.241C154.646 15.241 156.609 16.3604 156.774 17.8393C156.774 17.8393 154.793 15.2546 154.319 15.5079C154.223 15.5597 153.298 16.5292 153.298 16.5292C153.298 16.5292 156.705 18.4848 156.86 20.7753C156.86 20.7753 155.043 17.477 152.932 16.8969L151.655 18.4276C151.655 18.4276 155.387 20.3695 155.694 22.9732C155.694 22.9732 153.637 19.5715 151.408 18.7789L150.426 20.413C150.426 20.413 154.02 22.3576 154.255 24.5256C154.255 24.5256 151.351 20.7535 150.237 20.7998C150.237 20.7998 149.468 22.3522 149.537 22.8452C149.537 22.8452 152.075 24.2832 152.063 25.5469C152.063 25.5469 149.77 23.1665 149.392 23.2918C149.392 23.2918 149.132 25.5333 149.814 26.748C149.814 26.748 148.631 25.0022 148.916 23.2646C148.916 23.2646 147.617 23.9863 147.291 25.0022C147.291 25.0022 146.657 23.7249 148.99 22.7226C148.99 22.7226 149.287 20.985 149.559 20.7834C149.559 20.7834 147.055 21.5242 145.958 22.5537C145.958 22.5537 146.419 20.9523 149.797 20.3422L150.725 18.6754C150.725 18.6754 147.337 19.5252 146.262 20.3831C146.262 20.3831 147.08 18.8143 151.007 18.2696L152.235 16.758C152.235 16.758 149.23 17.3218 147.742 18.0789C147.742 18.0789 148.933 16.758 152.608 16.3359L153.59 15.4044C153.59 15.4044 151.408 15.8456 150.799 16.0145C150.19 16.1834 150.062 16.0744 150.062 16.0744C151.289 15.4154 152.628 15.0515 153.99 15.0068C153.99 15.0068 156.229 13.1874 156.087 13.0731Z" fill="#3A86FF"/>
<path opacity="0.1" d="M204.277 215.003C204.277 215.003 212.501 205.419 205.218 200.641C205.218 200.641 204.27 199.35 202.898 200.004C202.898 200.004 203.357 200.464 202.424 201.333C202.094 201.644 201.798 201.997 201.543 202.385C201.196 202.908 201.013 203.543 201.022 204.193C201.022 204.193 199.92 208.02 203.264 213.036C203.264 213.036 203.556 214.706 203.813 214.894L204.454 212.576C204.454 212.576 202.903 212.121 202.331 210.803C202.331 210.803 204.361 212.606 204.562 212.236C204.604 212.159 204.852 210.991 204.852 210.991C204.852 210.991 202.152 210.174 201.332 208.12C201.332 208.12 203.492 210.631 204.95 210.547L205.23 208.758C205.23 208.758 202.348 208.063 201.324 205.762C201.324 205.762 203.664 208.3 205.269 208.376L205.331 206.573C205.331 206.573 202.53 205.822 201.68 203.888C201.68 203.888 204.651 206.519 205.308 206.146C205.308 206.146 205.277 204.49 205.063 204.054C205.063 204.054 203.065 203.471 202.667 202.3C202.667 202.3 204.82 203.825 205.006 203.597C205.006 203.597 204.444 201.45 203.642 200.53C203.642 200.53 204.918 201.794 205.306 203.482C205.306 203.482 205.861 202.434 205.731 201.399C205.731 201.399 206.526 202.395 205.436 204.005C205.436 204.005 205.814 205.699 205.713 205.963C205.713 205.963 206.99 204.542 207.324 203.27C207.324 203.27 207.569 204.885 205.711 206.44L205.686 208.254C205.686 208.254 207.464 206.473 207.837 205.361C207.837 205.361 207.837 207.053 205.645 208.709L205.399 210.468C205.399 210.468 207.037 209.063 207.692 207.927C207.692 207.927 207.398 209.496 205.308 210.966L205.011 212.119C205.011 212.119 206.19 211.07 206.504 210.735C206.818 210.4 206.926 210.463 206.926 210.463C206.441 211.371 205.737 212.113 204.894 212.603C204.894 212.603 204.155 214.937 204.277 215.003Z" fill="#3A86FF"/>
<path opacity="0.1" d="M124.07 0.336172C124.07 0.336172 125.472 13.4746 133.436 10.3044C133.436 10.3044 134.936 10.318 135.358 8.72744C135.358 8.72744 134.744 8.82549 134.739 7.4746C134.733 6.99405 134.677 6.51593 134.57 6.05019C134.428 5.42007 134.105 4.85859 133.649 4.45146C133.649 4.45146 131.695 1.06881 126.071 0.736534C126.071 0.736534 124.726 -0.0805314 124.431 0.0229636L125.632 2.04656C125.632 2.04656 126.935 1.01161 128.217 1.36568C128.217 1.36568 125.668 1.94852 125.799 2.35705C125.823 2.44148 126.476 3.39744 126.476 3.39744C126.476 3.39744 128.771 1.5999 130.735 2.2127C130.735 2.2127 127.615 2.45237 126.741 3.75151L127.789 5.13507C127.789 5.13507 130.112 3.1142 132.373 3.7161C132.373 3.7161 129.118 4.0974 128.04 5.41832L129.262 6.62213C129.262 6.62213 131.56 4.6993 133.436 5.21678C133.436 5.21678 129.714 6.07742 129.552 6.87542C129.552 6.87542 130.723 7.90493 131.155 8.01387C131.155 8.01387 132.834 6.6766 133.9 7.08513C133.9 7.08513 131.469 7.95123 131.506 8.25626C131.506 8.25626 133.355 9.14414 134.506 9.04609C134.506 9.04609 132.815 9.31845 131.396 8.58309C131.396 8.58309 131.769 9.72426 132.571 10.2771C132.571 10.2771 131.374 10.318 130.949 8.37065C130.949 8.37065 129.535 7.6135 129.415 7.36021C129.415 7.36021 129.586 9.35658 130.257 10.4542C130.257 10.4542 128.985 9.63711 129.083 7.05245L127.856 5.87316C127.856 5.87316 127.956 8.52862 128.487 9.55812C128.487 9.55812 127.308 8.48777 127.564 5.54905L126.51 4.20634C126.51 4.20634 126.439 6.49957 126.808 7.78509C126.808 7.78509 125.907 6.53225 126.221 3.8087L125.61 2.82005C125.61 2.82005 125.587 4.49504 125.61 4.97983C125.632 5.46462 125.526 5.51092 125.526 5.51092C125.203 4.51299 125.137 3.43521 125.335 2.3979C125.335 2.3979 124.193 0.270806 124.07 0.336172Z" fill="#3A86FF"/>
<path opacity="0.1" d="M183.59 185.204C183.59 185.204 172.097 181.664 171.729 191.044C171.729 191.044 171.149 192.58 172.315 193.615C172.315 193.615 172.465 192.95 173.594 193.454C173.997 193.631 174.417 193.754 174.846 193.822C175.426 193.914 176.018 193.794 176.53 193.479C176.53 193.479 180.09 192.754 182.505 187.122C182.505 187.122 183.696 186.051 183.733 185.708L181.59 186.174C181.59 186.174 181.958 187.906 181.177 189.088C181.177 189.088 181.668 186.25 181.268 186.228C181.187 186.228 180.141 186.531 180.141 186.531C180.141 186.531 180.77 189.543 179.515 191.327C179.515 191.327 180.497 188.031 179.744 186.642L178.187 187.212C178.187 187.212 178.993 190.36 177.633 192.452C177.633 192.452 178.551 188.968 177.853 187.361L176.395 188.149C176.395 188.149 177.132 191.237 175.985 192.969C175.985 192.969 176.678 188.824 176.071 188.353C176.071 188.353 174.77 189.17 174.517 189.568C174.517 189.568 175.008 191.798 174.252 192.738C174.252 192.738 174.449 189.913 174.181 189.837C174.181 189.837 172.738 191.398 172.384 192.618C172.384 192.618 172.789 190.774 173.95 189.6C173.95 189.6 172.855 189.551 172.092 190.164C172.092 190.164 172.509 188.919 174.301 189.227C174.301 189.227 175.47 188.059 175.728 188.034C175.728 188.034 174.009 187.451 172.826 187.724C172.826 187.724 173.999 186.732 176.108 187.811L177.561 186.994C177.561 186.994 175.308 186.092 174.25 186.247C174.25 186.247 175.588 185.43 177.932 186.817L179.449 186.242C179.449 186.242 177.564 185.302 176.351 185.193C176.351 185.193 177.738 184.744 179.891 186.098L180.947 185.844C180.947 185.844 179.557 185.185 179.142 185.027C178.727 184.869 178.73 184.755 178.73 184.755C179.681 184.803 180.601 185.143 181.388 185.735C181.388 185.735 183.598 185.354 183.59 185.204Z" fill="#3A86FF"/>
</g>

</svg>
